<?xml version="1.0" encoding="UTF-8"?>
<svg width="571px" height="491px" viewBox="0 0 571 491" version="1.1" xmlns="http://www.w3.org/2000/svg" xmlns:xlink="http://www.w3.org/1999/xlink">
    <title>Artboard</title>
    <g id="Artboard" stroke="none" stroke-width="1" fill="none" fill-rule="evenodd">
        <rect id="Rectangle" fill="#D8D8D8" opacity="0.114363897" x="48" y="8" width="462" height="462" rx="20"></rect>
        <circle id="Oval" stroke-opacity="0.1" stroke="#000000" stroke-width="3" opacity="0.276058379" cx="176" cy="50" r="22"></circle>
        <circle id="Oval-Copy-2" stroke="#0091FF" stroke-width="3" cx="472" cy="357" r="22"></circle>
        <circle id="Oval-Copy-2" fill="#0091FF" opacity="0.187239874" cx="473" cy="365" r="22"></circle>
        <circle id="Oval-Copy-2" fill="#0091FF" opacity="0.0742572603" cx="125" cy="116" r="22"></circle>
        <circle id="Oval-Copy-2" fill="#6236FF" opacity="0.187239874" cx="46.5" cy="371.5" r="13.5"></circle>
        <circle id="Oval-Copy-3" stroke="#6236FF" stroke-width="3" cx="533" cy="138" r="29"></circle>
        <circle id="Oval-Copy-3" stroke-opacity="0.1" stroke="#000000" stroke-width="3" cx="354" cy="336" r="29"></circle>
        <circle id="Oval-Copy-4" stroke-opacity="0.1" stroke="#000000" stroke-width="3" opacity="0.189724877" cx="132" cy="432" r="29"></circle>
        <circle id="Oval-Copy-3" stroke-opacity="0.1" stroke="#000000" stroke-width="3" cx="451.5" cy="19.5" r="17.5"></circle>
        <circle id="Oval-Copy-3" fill="#6236FF" opacity="0.086084275" cx="542" cy="138" r="29"></circle>
        <path id="Line-2" d="M142.097091,111.869577 C144.881416,117.109991 143.389879,123.483013 138.845945,126.991238 L137.926278,125.332831 C180.68738,203.193102 244.620662,249.889492 329.861012,265.532852 C405.913719,279.490091 452.194629,303.447065 468.559717,337.689759 L469.046471,338.730565 L469.106143,338.860999 L469.146591,338.998613 L472.618,350.811 L476.057096,335.889337 C476.305164,334.812984 477.37882,334.141526 478.455173,334.389595 C479.482601,334.626387 480.141105,335.615419 479.983091,336.64099 L479.954915,336.787672 L474.801404,359.148437 L474.002885,362.613165 L471.456591,360.131559 L455.02325,344.115699 C454.232218,343.344763 454.215927,342.078538 454.986863,341.287506 C455.717224,340.538107 456.89211,340.484044 457.686349,341.135933 L457.815056,341.251119 L468.78,351.937 L465.349,340.267 L464.942957,339.398472 C449.421932,306.950553 404.954094,283.687482 331.399738,269.886666 L329.138988,269.467148 C243.300815,253.714075 178.649084,206.815242 135.315924,128.879232 C129.851291,130.719991 123.698137,128.391356 120.902909,123.130423 C117.793312,117.277811 120.016965,110.012506 125.869577,106.902909 C131.722189,103.793312 138.987494,106.016965 142.097091,111.869577 Z M127.746385,110.435273 C123.844643,112.508337 122.362208,117.351874 124.435273,121.253615 C126.452686,125.050614 131.093821,126.556456 134.937423,124.724017 C135.022043,124.656395 135.113163,124.596028 135.210492,124.542574 C135.322868,124.480857 135.438582,124.43107 135.556177,124.392789 C139.231014,122.237054 140.583165,117.545312 138.564727,113.746385 C136.491663,109.844643 131.648126,108.362208 127.746385,110.435273 Z" fill="#0091FF" fill-rule="nonzero"></path>
        <path id="Line" d="M535.96437,133.774537 L536.077003,137.328308 L536.803916,160.263742 C536.838906,161.367757 535.97229,162.291103 534.868275,162.326094 C533.814443,162.359494 532.925227,161.571389 532.816134,160.539467 L532.805923,160.390453 L532.32,145.086 L526.644012,155.971656 L526.592895,156.063682 C490.939273,216.450357 423.021942,248.901038 323.091904,253.497887 C219.553978,258.260702 130.760046,293.112948 56.6356215,358.071986 C59.7176375,362.921578 58.9493671,369.424937 54.5442619,373.404485 C49.6264507,377.847208 42.0382383,377.462073 37.5955152,372.544262 C33.152792,367.626451 33.5379269,360.038238 38.4557381,355.595515 C42.8748764,351.60329 49.450309,351.509462 53.9620259,355.099846 L52.5561453,356.3338 C127.660896,289.953457 217.803524,254.336994 322.908096,249.502113 C420.615867,245.007489 486.929468,213.744964 522.092445,155.794259 L523.125,154.069 L528.774,143.237 L515.947074,151.598416 C515.06802,152.17146 513.905766,151.964445 513.274566,151.148965 L513.179435,151.015173 C512.606391,150.136119 512.813405,148.973865 513.628886,148.342665 L513.762678,148.247534 L532.985808,135.716223 L535.96437,133.774537 Z M41.1371587,358.563677 C37.8586179,361.525492 37.6018613,366.5843 40.5636768,369.862841 C43.5254922,373.141382 48.5843005,373.398139 51.8628413,370.436323 C55.0407081,367.565456 55.379521,362.724403 52.7000693,359.444104 C52.5847214,359.362538 52.4787438,359.266249 52.3820664,359.156866 C52.2947825,359.05811 52.2190231,358.953142 52.1546869,358.843609 C49.1638515,355.845832 44.3144838,355.693299 41.1371587,358.563677 Z" fill="#6236FF" fill-rule="nonzero"></path>
    </g>
</svg>